<svg xmlns="http://www.w3.org/2000/svg" width="920" height="330" viewBox="0 0 920 330" font-family="Consolas, 'JetBrains Mono', monospace"><rect width="920" height="330" rx="16" fill="#0D1117" stroke="#30363D"/><text x="36" y="42" font-size="19" font-weight="700" letter-spacing="2" fill="#00FF88">F0RAN9 · GITHUB STATS</text><text x="884" y="42" text-anchor="end" font-size="11" fill="#8B949E">AUTO-REFRESHED DAILY</text><text x="36" y="92" font-size="27" font-weight="700" fill="#E6EDF3">4</text><text x="36" y="114" font-size="11" letter-spacing="1" fill="#8B949E">CONTRIBUTIONS / 1Y</text><text x="208" y="92" font-size="27" font-weight="700" fill="#E6EDF3">0d</text><text x="208" y="114" font-size="11" letter-spacing="1" fill="#8B949E">CURRENT STREAK</text><text x="380" y="92" font-size="27" font-weight="700" fill="#E6EDF3">1d</text><text x="380" y="114" font-size="11" letter-spacing="1" fill="#8B949E">LONGEST STREAK</text><text x="552" y="92" font-size="27" font-weight="700" fill="#E6EDF3">295</text><text x="552" y="114" font-size="11" letter-spacing="1" fill="#8B949E">STARS EARNED</text><text x="724" y="92" font-size="27" font-weight="700" fill="#E6EDF3">48</text><text x="724" y="114" font-size="11" letter-spacing="1" fill="#8B949E">FOLLOWERS</text><text x="36" y="160" font-size="11" letter-spacing="1" fill="#8B949E">CONTRIBUTIONS · LAST 26 WEEKS</text><rect x="36" y="176" width="12" height="12" rx="2.5" fill="#161B22" stroke="#1F2730"/><rect x="36" y="191" width="12" height="12" rx="2.5" fill="#161B22" stroke="#1F2730"/><rect x="36" y="206" width="12" height="12" rx="2.5" fill="#161B22" stroke="#1F2730"/><rect x="36" y="221" width="12" height="12" rx="2.5" fill="#161B22" stroke="#1F2730"/><rect x="36" y="236" width="12" height="12" rx="2.5" fill="#161B22" stroke="#1F2730"/><rect x="36" y="251" width="12" height="12" rx="2.5" fill="#161B22" stroke="#1F2730"/><rect x="36" y="266" width="12" height="12" rx="2.5" fill="#161B22" stroke="#1F2730"/><rect x="51" y="176" width="12" height="12" rx="2.5" fill="#161B22" stroke="#1F2730"/><rect x="51" y="191" width="12" height="12" rx="2.5" fill="#161B22" stroke="#1F2730"/><rect x="51" y="206" width="12" height="12" rx="2.5" fill="#161B22" stroke="#1F2730"/><rect x="51" y="221" width="12" height="12" rx="2.5" fill="#161B22" stroke="#1F2730"/><rect x="51" y="236" width="12" height="12" rx="2.5" fill="#161B22" stroke="#1F2730"/><rect x="51" y="251" width="12" height="12" rx="2.5" fill="#161B22" stroke="#1F2730"/><rect x="51" y="266" width="12" height="12" rx="2.5" fill="#161B22" stroke="#1F2730"/><rect x="66" y="176" width="12" height="12" rx="2.5" fill="#161B22" stroke="#1F2730"/><rect x="66" y="191" width="12" height="12" rx="2.5" fill="#161B22" stroke="#1F2730"/><rect x="66" y="206" width="12" height="12" rx="2.5" fill="#161B22" stroke="#1F2730"/><rect x="66" y="221" width="12" height="12" rx="2.5" fill="#161B22" stroke="#1F2730"/><rect x="66" y="236" width="12" height="12" rx="2.5" fill="#161B22" stroke="#1F2730"/><rect x="66" y="251" width="12" height="12" rx="2.5" fill="#161B22" stroke="#1F2730"/><rect x="66" y="266" width="12" height="12" rx="2.5" fill="#161B22" stroke="#1F2730"/><rect x="81" y="176" width="12" height="12" rx="2.5" fill="#161B22" stroke="#1F2730"/><rect x="81" y="191" width="12" height="12" rx="2.5" fill="#161B22" stroke="#1F2730"/><rect x="81" y="206" width="12" height="12" rx="2.5" fill="#161B22" stroke="#1F2730"/><rect x="81" y="221" width="12" height="12" rx="2.5" fill="#161B22" stroke="#1F2730"/><rect x="81" y="236" width="12" height="12" rx="2.5" fill="#161B22" stroke="#1F2730"/><rect x="81" y="251" width="12" height="12" rx="2.5" fill="#161B22" stroke="#1F2730"/><rect x="81" y="266" width="12" height="12" rx="2.5" fill="#161B22" stroke="#1F2730"/><rect x="96" y="176" width="12" height="12" rx="2.5" fill="#161B22" stroke="#1F2730"/><rect x="96" y="191" width="12" height="12" rx="2.5" fill="#161B22" stroke="#1F2730"/><rect x="96" y="206" width="12" height="12" rx="2.5" fill="#161B22" stroke="#1F2730"/><rect x="96" y="221" width="12" height="12" rx="2.5" fill="#161B22" stroke="#1F2730"/><rect x="96" y="236" width="12" height="12" rx="2.5" fill="#161B22" stroke="#1F2730"/><rect x="96" y="251" width="12" height="12" rx="2.5" fill="#161B22" stroke="#1F2730"/><rect x="96" y="266" width="12" height="12" rx="2.5" fill="#161B22" stroke="#1F2730"/><rect x="111" y="176" width="12" height="12" rx="2.5" fill="#161B22" stroke="#1F2730"/><rect x="111" y="191" width="12" height="12" rx="2.5" fill="#161B22" stroke="#1F2730"/><rect x="111" y="206" width="12" height="12" rx="2.5" fill="#161B22" stroke="#1F2730"/><rect x="111" y="221" width="12" height="12" rx="2.5" fill="#161B22" stroke="#1F2730"/><rect x="111" y="236" width="12" height="12" rx="2.5" fill="#161B22" stroke="#1F2730"/><rect x="111" y="251" width="12" height="12" rx="2.5" fill="#161B22" stroke="#1F2730"/><rect x="111" y="266" width="12" height="12" rx="2.5" fill="#161B22" stroke="#1F2730"/><rect x="126" y="176" width="12" height="12" rx="2.5" fill="#161B22" stroke="#1F2730"/><rect x="126" y="191" width="12" height="12" rx="2.5" fill="#161B22" stroke="#1F2730"/><rect x="126" y="206" width="12" height="12" rx="2.5" fill="#161B22" stroke="#1F2730"/><rect x="126" y="221" width="12" height="12" rx="2.5" fill="#161B22" stroke="#1F2730"/><rect x="126" y="236" width="12" height="12" rx="2.5" fill="#161B22" stroke="#1F2730"/><rect x="126" y="251" width="12" height="12" rx="2.5" fill="#161B22" stroke="#1F2730"/><rect x="126" y="266" width="12" height="12" rx="2.5" fill="#161B22" stroke="#1F2730"/><rect x="141" y="176" width="12" height="12" rx="2.5" fill="#161B22" stroke="#1F2730"/><rect x="141" y="191" width="12" height="12" rx="2.5" fill="#161B22" stroke="#1F2730"/><rect x="141" y="206" width="12" height="12" rx="2.5" fill="#161B22" stroke="#1F2730"/><rect x="141" y="221" width="12" height="12" rx="2.5" fill="#161B22" stroke="#1F2730"/><rect x="141" y="236" width="12" height="12" rx="2.5" fill="#161B22" stroke="#1F2730"/><rect x="141" y="251" width="12" height="12" rx="2.5" fill="#161B22" stroke="#1F2730"/><rect x="141" y="266" width="12" height="12" rx="2.5" fill="#161B22" stroke="#1F2730"/><rect x="156" y="176" width="12" height="12" rx="2.5" fill="#003822"/><rect x="156" y="191" width="12" height="12" rx="2.5" fill="#161B22" stroke="#1F2730"/><rect x="156" y="206" width="12" height="12" rx="2.5" fill="#161B22" stroke="#1F2730"/><rect x="156" y="221" width="12" height="12" rx="2.5" fill="#161B22" stroke="#1F2730"/><rect x="156" y="236" width="12" height="12" rx="2.5" fill="#161B22" stroke="#1F2730"/><rect x="156" y="251" width="12" height="12" rx="2.5" fill="#161B22" stroke="#1F2730"/><rect x="156" y="266" width="12" height="12" rx="2.5" fill="#161B22" stroke="#1F2730"/><rect x="171" y="176" width="12" height="12" rx="2.5" fill="#161B22" stroke="#1F2730"/><rect x="171" y="191" width="12" height="12" rx="2.5" fill="#161B22" stroke="#1F2730"/><rect x="171" y="206" width="12" height="12" rx="2.5" fill="#161B22" stroke="#1F2730"/><rect x="171" y="221" width="12" height="12" rx="2.5" fill="#161B22" stroke="#1F2730"/><rect x="171" y="236" width="12" height="12" rx="2.5" fill="#161B22" stroke="#1F2730"/><rect x="171" y="251" width="12" height="12" rx="2.5" fill="#161B22" stroke="#1F2730"/><rect x="171" y="266" width="12" height="12" rx="2.5" fill="#161B22" stroke="#1F2730"/><rect x="186" y="176" width="12" height="12" rx="2.5" fill="#161B22" stroke="#1F2730"/><rect x="186" y="191" width="12" height="12" rx="2.5" fill="#161B22" stroke="#1F2730"/><rect x="186" y="206" width="12" height="12" rx="2.5" fill="#161B22" stroke="#1F2730"/><rect x="186" y="221" width="12" height="12" rx="2.5" fill="#161B22" stroke="#1F2730"/><rect x="186" y="236" width="12" height="12" rx="2.5" fill="#161B22" stroke="#1F2730"/><rect x="186" y="251" width="12" height="12" rx="2.5" fill="#161B22" stroke="#1F2730"/><rect x="186" y="266" width="12" height="12" rx="2.5" fill="#161B22" stroke="#1F2730"/><rect x="201" y="176" width="12" height="12" rx="2.5" fill="#161B22" stroke="#1F2730"/><rect x="201" y="191" width="12" height="12" rx="2.5" fill="#161B22" stroke="#1F2730"/><rect x="201" y="206" width="12" height="12" rx="2.5" fill="#161B22" stroke="#1F2730"/><rect x="201" y="221" width="12" height="12" rx="2.5" fill="#161B22" stroke="#1F2730"/><rect x="201" y="236" width="12" height="12" rx="2.5" fill="#161B22" stroke="#1F2730"/><rect x="201" y="251" width="12" height="12" rx="2.5" fill="#161B22" stroke="#1F2730"/><rect x="201" y="266" width="12" height="12" rx="2.5" fill="#161B22" stroke="#1F2730"/><rect x="216" y="176" width="12" height="12" rx="2.5" fill="#161B22" stroke="#1F2730"/><rect x="216" y="191" width="12" height="12" rx="2.5" fill="#161B22" stroke="#1F2730"/><rect x="216" y="206" width="12" height="12" rx="2.5" fill="#161B22" stroke="#1F2730"/><rect x="216" y="221" width="12" height="12" rx="2.5" fill="#161B22" stroke="#1F2730"/><rect x="216" y="236" width="12" height="12" rx="2.5" fill="#161B22" stroke="#1F2730"/><rect x="216" y="251" width="12" height="12" rx="2.5" fill="#161B22" stroke="#1F2730"/><rect x="216" y="266" width="12" height="12" rx="2.5" fill="#161B22" stroke="#1F2730"/><rect x="231" y="176" width="12" height="12" rx="2.5" fill="#161B22" stroke="#1F2730"/><rect x="231" y="191" width="12" height="12" rx="2.5" fill="#161B22" stroke="#1F2730"/><rect x="231" y="206" width="12" height="12" rx="2.5" fill="#161B22" stroke="#1F2730"/><rect x="231" y="221" width="12" height="12" rx="2.5" fill="#161B22" stroke="#1F2730"/><rect x="231" y="236" width="12" height="12" rx="2.5" fill="#161B22" stroke="#1F2730"/><rect x="231" y="251" width="12" height="12" rx="2.5" fill="#161B22" stroke="#1F2730"/><rect x="231" y="266" width="12" height="12" rx="2.5" fill="#161B22" stroke="#1F2730"/><rect x="246" y="176" width="12" height="12" rx="2.5" fill="#161B22" stroke="#1F2730"/><rect x="246" y="191" width="12" height="12" rx="2.5" fill="#161B22" stroke="#1F2730"/><rect x="246" y="206" width="12" height="12" rx="2.5" fill="#161B22" stroke="#1F2730"/><rect x="246" y="221" width="12" height="12" rx="2.5" fill="#161B22" stroke="#1F2730"/><rect x="246" y="236" width="12" height="12" rx="2.5" fill="#161B22" stroke="#1F2730"/><rect x="246" y="251" width="12" height="12" rx="2.5" fill="#161B22" stroke="#1F2730"/><rect x="246" y="266" width="12" height="12" rx="2.5" fill="#161B22" stroke="#1F2730"/><rect x="261" y="176" width="12" height="12" rx="2.5" fill="#161B22" stroke="#1F2730"/><rect x="261" y="191" width="12" height="12" rx="2.5" fill="#161B22" stroke="#1F2730"/><rect x="261" y="206" width="12" height="12" rx="2.5" fill="#161B22" stroke="#1F2730"/><rect x="261" y="221" width="12" height="12" rx="2.5" fill="#161B22" stroke="#1F2730"/><rect x="261" y="236" width="12" height="12" rx="2.5" fill="#161B22" stroke="#1F2730"/><rect x="261" y="251" width="12" height="12" rx="2.5" fill="#161B22" stroke="#1F2730"/><rect x="261" y="266" width="12" height="12" rx="2.5" fill="#161B22" stroke="#1F2730"/><rect x="276" y="176" width="12" height="12" rx="2.5" fill="#161B22" stroke="#1F2730"/><rect x="276" y="191" width="12" height="12" rx="2.5" fill="#161B22" stroke="#1F2730"/><rect x="276" y="206" width="12" height="12" rx="2.5" fill="#161B22" stroke="#1F2730"/><rect x="276" y="221" width="12" height="12" rx="2.5" fill="#161B22" stroke="#1F2730"/><rect x="276" y="236" width="12" height="12" rx="2.5" fill="#161B22" stroke="#1F2730"/><rect x="276" y="251" width="12" height="12" rx="2.5" fill="#161B22" stroke="#1F2730"/><rect x="276" y="266" width="12" height="12" rx="2.5" fill="#161B22" stroke="#1F2730"/><rect x="291" y="176" width="12" height="12" rx="2.5" fill="#161B22" stroke="#1F2730"/><rect x="291" y="191" width="12" height="12" rx="2.5" fill="#161B22" stroke="#1F2730"/><rect x="291" y="206" width="12" height="12" rx="2.5" fill="#161B22" stroke="#1F2730"/><rect x="291" y="221" width="12" height="12" rx="2.5" fill="#161B22" stroke="#1F2730"/><rect x="291" y="236" width="12" height="12" rx="2.5" fill="#161B22" stroke="#1F2730"/><rect x="291" y="251" width="12" height="12" rx="2.5" fill="#161B22" stroke="#1F2730"/><rect x="291" y="266" width="12" height="12" rx="2.5" fill="#161B22" stroke="#1F2730"/><rect x="306" y="176" width="12" height="12" rx="2.5" fill="#161B22" stroke="#1F2730"/><rect x="306" y="191" width="12" height="12" rx="2.5" fill="#161B22" stroke="#1F2730"/><rect x="306" y="206" width="12" height="12" rx="2.5" fill="#161B22" stroke="#1F2730"/><rect x="306" y="221" width="12" height="12" rx="2.5" fill="#161B22" stroke="#1F2730"/><rect x="306" y="236" width="12" height="12" rx="2.5" fill="#161B22" stroke="#1F2730"/><rect x="306" y="251" width="12" height="12" rx="2.5" fill="#161B22" stroke="#1F2730"/><rect x="306" y="266" width="12" height="12" rx="2.5" fill="#161B22" stroke="#1F2730"/><rect x="321" y="176" width="12" height="12" rx="2.5" fill="#161B22" stroke="#1F2730"/><rect x="321" y="191" width="12" height="12" rx="2.5" fill="#161B22" stroke="#1F2730"/><rect x="321" y="206" width="12" height="12" rx="2.5" fill="#161B22" stroke="#1F2730"/><rect x="321" y="221" width="12" height="12" rx="2.5" fill="#161B22" stroke="#1F2730"/><rect x="321" y="236" width="12" height="12" rx="2.5" fill="#161B22" stroke="#1F2730"/><rect x="321" y="251" width="12" height="12" rx="2.5" fill="#161B22" stroke="#1F2730"/><rect x="321" y="266" width="12" height="12" rx="2.5" fill="#161B22" stroke="#1F2730"/><rect x="336" y="176" width="12" height="12" rx="2.5" fill="#161B22" stroke="#1F2730"/><rect x="336" y="191" width="12" height="12" rx="2.5" fill="#161B22" stroke="#1F2730"/><rect x="336" y="206" width="12" height="12" rx="2.5" fill="#161B22" stroke="#1F2730"/><rect x="336" y="221" width="12" height="12" rx="2.5" fill="#161B22" stroke="#1F2730"/><rect x="336" y="236" width="12" height="12" rx="2.5" fill="#161B22" stroke="#1F2730"/><rect x="336" y="251" width="12" height="12" rx="2.5" fill="#161B22" stroke="#1F2730"/><rect x="336" y="266" width="12" height="12" rx="2.5" fill="#161B22" stroke="#1F2730"/><rect x="351" y="176" width="12" height="12" rx="2.5" fill="#161B22" stroke="#1F2730"/><rect x="351" y="191" width="12" height="12" rx="2.5" fill="#161B22" stroke="#1F2730"/><rect x="351" y="206" width="12" height="12" rx="2.5" fill="#161B22" stroke="#1F2730"/><rect x="351" y="221" width="12" height="12" rx="2.5" fill="#161B22" stroke="#1F2730"/><rect x="351" y="236" width="12" height="12" rx="2.5" fill="#161B22" stroke="#1F2730"/><rect x="351" y="251" width="12" height="12" rx="2.5" fill="#161B22" stroke="#1F2730"/><rect x="351" y="266" width="12" height="12" rx="2.5" fill="#161B22" stroke="#1F2730"/><rect x="366" y="176" width="12" height="12" rx="2.5" fill="#161B22" stroke="#1F2730"/><rect x="366" y="191" width="12" height="12" rx="2.5" fill="#161B22" stroke="#1F2730"/><rect x="366" y="206" width="12" height="12" rx="2.5" fill="#161B22" stroke="#1F2730"/><rect x="366" y="221" width="12" height="12" rx="2.5" fill="#161B22" stroke="#1F2730"/><rect x="366" y="236" width="12" height="12" rx="2.5" fill="#161B22" stroke="#1F2730"/><rect x="366" y="251" width="12" height="12" rx="2.5" fill="#161B22" stroke="#1F2730"/><rect x="366" y="266" width="12" height="12" rx="2.5" fill="#161B22" stroke="#1F2730"/><rect x="381" y="176" width="12" height="12" rx="2.5" fill="#161B22" stroke="#1F2730"/><rect x="381" y="191" width="12" height="12" rx="2.5" fill="#161B22" stroke="#1F2730"/><rect x="381" y="206" width="12" height="12" rx="2.5" fill="#161B22" stroke="#1F2730"/><rect x="381" y="221" width="12" height="12" rx="2.5" fill="#161B22" stroke="#1F2730"/><rect x="381" y="236" width="12" height="12" rx="2.5" fill="#161B22" stroke="#1F2730"/><rect x="381" y="251" width="12" height="12" rx="2.5" fill="#161B22" stroke="#1F2730"/><rect x="381" y="266" width="12" height="12" rx="2.5" fill="#161B22" stroke="#1F2730"/><rect x="396" y="176" width="12" height="12" rx="2.5" fill="#003822"/><rect x="396" y="191" width="12" height="12" rx="2.5" fill="#161B22" stroke="#1F2730"/><rect x="396" y="206" width="12" height="12" rx="2.5" fill="#161B22" stroke="#1F2730"/><rect x="396" y="221" width="12" height="12" rx="2.5" fill="#161B22" stroke="#1F2730"/><rect x="396" y="236" width="12" height="12" rx="2.5" fill="#161B22" stroke="#1F2730"/><rect x="396" y="251" width="12" height="12" rx="2.5" fill="#161B22" stroke="#1F2730"/><rect x="396" y="266" width="12" height="12" rx="2.5" fill="#161B22" stroke="#1F2730"/><rect x="411" y="176" width="12" height="12" rx="2.5" fill="#161B22" stroke="#1F2730"/><rect x="411" y="191" width="12" height="12" rx="2.5" fill="#161B22" stroke="#1F2730"/><rect x="411" y="206" width="12" height="12" rx="2.5" fill="#161B22" stroke="#1F2730"/><rect x="411" y="221" width="12" height="12" rx="2.5" fill="#161B22" stroke="#1F2730"/><rect x="411" y="236" width="12" height="12" rx="2.5" fill="#161B22" stroke="#1F2730"/><rect x="411" y="251" width="12" height="12" rx="2.5" fill="#161B22" stroke="#1F2730"/><rect x="411" y="266" width="12" height="12" rx="2.5" fill="#161B22" stroke="#1F2730"/><text x="296" y="292" font-size="10" fill="#8B949E">LESS</text><rect x="330" y="284" width="10" height="10" rx="2" fill="#161B22" stroke="#1F2730"/><rect x="345" y="284" width="10" height="10" rx="2" fill="#003822" stroke="#1F2730"/><rect x="360" y="284" width="10" height="10" rx="2" fill="#006644" stroke="#1F2730"/><rect x="375" y="284" width="10" height="10" rx="2" fill="#00AA66" stroke="#1F2730"/><rect x="390" y="284" width="10" height="10" rx="2" fill="#00FF88" stroke="#1F2730"/><text x="407" y="292" font-size="10" fill="#8B949E">MORE</text><text x="36" y="312" font-size="10" fill="#484F58">2026-03-08 → 2026-09-05</text><text x="884" y="312" text-anchor="end" font-size="10" fill="#484F58">Hack. Automate. Repeat. ⚡</text></svg>